<?xml version="1.0" encoding="utf-8"?>
<!-- Generator: Adobe Illustrator 22.1.0, SVG Export Plug-In . SVG Version: 6.00 Build 0)  -->
<svg version="1.1" id="Laag_1" xmlns="http://www.w3.org/2000/svg" xmlns:xlink="http://www.w3.org/1999/xlink" x="0px" y="0px"
	 viewBox="0 0 380.4 380.4" style="enable-background:new 0 0 380.4 380.4;" xml:space="preserve">
<style type="text/css">
	.st0{display:none;}
	.st1{display:inline;fill:none;}
	.st2{fill:#EDEDED;}
</style>
<g id="Laag_2_1_" class="st0">
	<line class="st1" x1="254.6" y1="250.8" x2="222.6" y2="288.4"/>
	
		<image style="display:inline;overflow:visible;enable-background:new    ;" width="692" height="498" xlink:href="../../../../photoshop projectjes/Tijn Roozen/4b739ceb22d94eaf0d42792e5cc9dd0f.jpg"  transform="matrix(1.7126 0 0 1.7126 -392.5234 -201.2628)">
	</image>
</g>
<g id="Laag_3">
	<path class="st2" d="M242.2,233.6"/>
	<path class="st2" d="M254.7,280.4"/>
	<path class="st2" d="M108.2,77.2"/>
	<path class="st2" d="M276.6,205.6"/>
	<path class="st2" d="M102.4,110.5h104c0,0,61.6,3.6,61.6,57.5c0,46.3-39.5,48.8-39.5,48.8l43.6,60.6l-48.6-0.1l-64.8-88.6h49.5
		c0,0,14.3-3.6,14.3-20.7s-15.9-20-15.9-20h-77.4L102.4,110.5z"/>
	<polygon class="st2" points="60.4,60.4 319.6,60.4 354.9,25.1 25.5,25.1 25.5,355.3 60.4,320.3 	"/>
</g>
</svg>
